# Blender 4.5.4 LTS
# www.blender.org
mtllib Tp Area Logo.mtl
o Cylinder
v 0.000000 0.211386 -1.000000
v 0.000000 0.000000 -1.000000
v 0.195090 0.211386 -0.980785
v 0.195090 0.000000 -0.980785
v 0.382683 0.211386 -0.923880
v 0.382683 0.000000 -0.923880
v 0.555570 0.211386 -0.831470
v 0.555570 0.000000 -0.831470
v 0.707107 0.211386 -0.707107
v 0.707107 0.000000 -0.707107
v 0.831470 0.211386 -0.555570
v 0.831470 0.000000 -0.555570
v 0.923880 0.211386 -0.382683
v 0.923880 0.000000 -0.382683
v 0.980785 0.211386 -0.195090
v 0.980785 0.000000 -0.195090
v 1.000000 0.211386 0.000000
v 1.000000 0.000000 0.000000
v 0.980785 0.211386 0.195090
v 0.980785 0.000000 0.195090
v 0.923880 0.211386 0.382683
v 0.923880 0.000000 0.382683
v 0.831470 0.211386 0.555570
v 0.831470 0.000000 0.555570
v 0.707107 0.211386 0.707107
v 0.707107 0.000000 0.707107
v 0.555570 0.211386 0.831470
v 0.555570 0.000000 0.831470
v 0.382683 0.211386 0.923880
v 0.382683 0.000000 0.923880
v 0.195090 0.211386 0.980785
v 0.195090 0.000000 0.980785
v 0.000000 0.211386 1.000000
v 0.000000 0.000000 1.000000
v -0.195090 0.211386 0.980785
v -0.195090 0.000000 0.980785
v -0.382683 0.211386 0.923880
v -0.382683 0.000000 0.923880
v -0.555570 0.211386 0.831470
v -0.555570 0.000000 0.831470
v -0.707107 0.211386 0.707107
v -0.707107 0.000000 0.707107
v -0.831470 0.211386 0.555570
v -0.831470 0.000000 0.555570
v -0.923880 0.211386 0.382683
v -0.923880 0.000000 0.382683
v -0.980785 0.211386 0.195090
v -0.980785 0.000000 0.195090
v -1.000000 0.211386 0.000000
v -1.000000 0.000000 0.000000
v -0.980785 0.211386 -0.195090
v -0.980785 0.000000 -0.195090
v -0.923880 0.211386 -0.382683
v -0.923880 0.000000 -0.382683
v -0.831470 0.211386 -0.555570
v -0.831470 0.000000 -0.555570
v -0.707107 0.211386 -0.707107
v -0.707107 0.000000 -0.707107
v -0.555570 0.211386 -0.831470
v -0.555570 0.000000 -0.831470
v -0.382683 0.211386 -0.923880
v -0.382683 0.000000 -0.923880
v -0.195090 0.211386 -0.980785
v -0.195090 0.000000 -0.980785
vn -0.0000 -0.0000 -1.0000
vn 0.1951 -0.0000 -0.9808
vn 0.3827 -0.0000 -0.9239
vn 0.5556 -0.0000 -0.8315
vn 0.7071 -0.0000 -0.7071
vn 0.8315 -0.0000 -0.5556
vn 0.9239 -0.0000 -0.3827
vn 0.9808 -0.0000 -0.1951
vn 1.0000 -0.0000 -0.0000
vn 0.9808 -0.0000 0.1951
vn 0.9239 -0.0000 0.3827
vn 0.8315 -0.0000 0.5556
vn 0.7071 -0.0000 0.7071
vn 0.5556 -0.0000 0.8315
vn 0.3827 -0.0000 0.9239
vn 0.1951 -0.0000 0.9808
vn -0.0000 -0.0000 1.0000
vn -0.1951 -0.0000 0.9808
vn -0.3827 -0.0000 0.9239
vn -0.5556 -0.0000 0.8315
vn -0.7071 -0.0000 0.7071
vn -0.8315 -0.0000 0.5556
vn -0.9239 -0.0000 0.3827
vn -0.9808 -0.0000 0.1951
vn -1.0000 -0.0000 -0.0000
vn -0.9808 -0.0000 -0.1951
vn -0.9239 -0.0000 -0.3827
vn -0.8315 -0.0000 -0.5556
vn -0.7071 -0.0000 -0.7071
vn -0.5556 -0.0000 -0.8315
vn -0.3827 -0.0000 -0.9239
vn -0.0000 -1.0000 -0.0000
vn -0.1951 -0.0000 -0.9808
vn -0.0000 1.0000 -0.0000
vt 0.012170 0.759729
vt 0.012170 0.766968
vt 0.127996 0.766968
vt 0.127996 0.759729
vt 0.012170 0.774207
vt 0.127996 0.774207
vt 0.012170 0.781447
vt 0.127996 0.781447
vt 0.012170 0.788686
vt 0.127996 0.788686
vt 0.012170 0.795925
vt 0.127996 0.795925
vt 0.012170 0.803164
vt 0.127996 0.803164
vt 0.012170 0.810403
vt 0.127996 0.810403
vt 0.012170 0.817642
vt 0.127996 0.817642
vt 0.012170 0.824881
vt 0.127996 0.824881
vt 0.012170 0.832121
vt 0.127996 0.832121
vt 0.012170 0.839360
vt 0.127996 0.839360
vt 0.012170 0.846599
vt 0.127996 0.846599
vt 0.012170 0.853838
vt 0.127996 0.853838
vt 0.012170 0.861077
vt 0.127996 0.861077
vt 0.012170 0.868316
vt 0.127996 0.868316
vt 0.012170 0.875555
vt 0.127996 0.875555
vt 0.012170 0.882795
vt 0.127996 0.882795
vt 0.012170 0.890034
vt 0.127996 0.890034
vt 0.012170 0.897273
vt 0.127996 0.897273
vt 0.012170 0.904512
vt 0.127996 0.904512
vt 0.012170 0.911751
vt 0.127996 0.911751
vt 0.012170 0.918990
vt 0.127996 0.918990
vt 0.012170 0.926229
vt 0.127996 0.926229
vt 0.012170 0.933469
vt 0.127996 0.933469
vt 0.012170 0.940708
vt 0.127996 0.940708
vt 0.012170 0.947947
vt 0.127996 0.947947
vt 0.012170 0.955186
vt 0.127996 0.955186
vt 0.012170 0.962425
vt 0.127996 0.962425
vt 0.012170 0.969664
vt 0.127996 0.969664
vt 0.012170 0.976903
vt 0.127996 0.976903
vt 0.827615 0.708075
vt 0.824214 0.690974
vt 0.817541 0.674864
vt 0.807854 0.660366
vt 0.795524 0.648037
vt 0.781026 0.638350
vt 0.764917 0.631677
vt 0.747816 0.628275
vt 0.730379 0.628275
vt 0.713278 0.631677
vt 0.697168 0.638350
vt 0.682670 0.648037
vt 0.670341 0.660366
vt 0.660654 0.674864
vt 0.653981 0.690974
vt 0.650579 0.708075
vt 0.650579 0.725512
vt 0.653981 0.742613
vt 0.660654 0.758722
vt 0.670341 0.773220
vt 0.682670 0.785550
vt 0.697168 0.795237
vt 0.713278 0.801910
vt 0.730379 0.805311
vt 0.747816 0.805311
vt 0.764917 0.801910
vt 0.781026 0.795237
vt 0.795524 0.785550
vt 0.807854 0.773220
vt 0.817541 0.758722
vt 0.824214 0.742613
vt 0.827615 0.725512
vt 0.012170 0.984143
vt 0.127996 0.984143
vt 0.012170 0.991382
vt 0.127996 0.991382
vt 0.500226 1.026310
vt 0.397488 1.014663
vt 0.298997 0.983196
vt 0.208537 0.933119
vt 0.129585 0.866357
vt 0.065175 0.785475
vt 0.017781 0.693580
vt -0.010774 0.594206
vt -0.019393 0.491170
vt -0.007746 0.388433
vt 0.023721 0.289942
vt 0.073798 0.199482
vt 0.140560 0.120530
vt 0.221443 0.056120
vt 0.313337 0.008726
vt 0.412711 -0.019829
vt 0.515747 -0.028448
vt 0.618484 -0.016801
vt 0.716975 0.014666
vt 0.807435 0.064743
vt 0.886387 0.131505
vt 0.950798 0.212388
vt 0.998191 0.304282
vt 1.026746 0.403656
vt 1.035366 0.506692
vt 1.023718 0.609429
vt 0.992251 0.707920
vt 0.942175 0.798380
vt 0.875412 0.877332
vt 0.794530 0.941743
vt 0.702636 0.989136
vt 0.603261 1.017691
s 1
usemtl Logo_Cim
f 1/1/1 3/2/2 4/3/2 2/4/1
f 3/2/2 5/5/3 6/6/3 4/3/2
f 5/5/3 7/7/4 8/8/4 6/6/3
f 7/7/4 9/9/5 10/10/5 8/8/4
f 9/9/5 11/11/6 12/12/6 10/10/5
f 11/11/6 13/13/7 14/14/7 12/12/6
f 13/13/7 15/15/8 16/16/8 14/14/7
f 15/15/8 17/17/9 18/18/9 16/16/8
f 17/17/9 19/19/10 20/20/10 18/18/9
f 19/19/10 21/21/11 22/22/11 20/20/10
f 21/21/11 23/23/12 24/24/12 22/22/11
f 23/23/12 25/25/13 26/26/13 24/24/12
f 25/25/13 27/27/14 28/28/14 26/26/13
f 27/27/14 29/29/15 30/30/15 28/28/14
f 29/29/15 31/31/16 32/32/16 30/30/15
f 31/31/16 33/33/17 34/34/17 32/32/16
f 33/33/17 35/35/18 36/36/18 34/34/17
f 35/35/18 37/37/19 38/38/19 36/36/18
f 37/37/19 39/39/20 40/40/20 38/38/19
f 39/39/20 41/41/21 42/42/21 40/40/20
f 41/41/21 43/43/22 44/44/22 42/42/21
f 43/43/22 45/45/23 46/46/23 44/44/22
f 45/45/23 47/47/24 48/48/24 46/46/23
f 47/47/24 49/49/25 50/50/25 48/48/24
f 49/49/25 51/51/26 52/52/26 50/50/25
f 51/51/26 53/53/27 54/54/27 52/52/26
f 53/53/27 55/55/28 56/56/28 54/54/27
f 55/55/28 57/57/29 58/58/29 56/56/28
f 57/57/29 59/59/30 60/60/30 58/58/29
f 59/59/30 61/61/31 62/62/31 60/60/30
f 4/63/32 6/64/32 8/65/32 10/66/32 12/67/32 14/68/32 16/69/32 18/70/32 20/71/32 22/72/32 24/73/32 26/74/32 28/75/32 30/76/32 32/77/32 34/78/32 36/79/32 38/80/32 40/81/32 42/82/32 44/83/32 46/84/32 48/85/32 50/86/32 52/87/32 54/88/32 56/89/32 58/90/32 60/91/32 62/92/32 64/93/32 2/94/32
f 61/61/31 63/95/33 64/96/33 62/62/31
f 63/95/33 1/97/1 2/98/1 64/96/33
f 1/99/34 63/100/34 61/101/34 59/102/34 57/103/34 55/104/34 53/105/34 51/106/34 49/107/34 47/108/34 45/109/34 43/110/34 41/111/34 39/112/34 37/113/34 35/114/34 33/115/34 31/116/34 29/117/34 27/118/34 25/119/34 23/120/34 21/121/34 19/122/34 17/123/34 15/124/34 13/125/34 11/126/34 9/127/34 7/128/34 5/129/34 3/130/34
